<?xml version="1.0" encoding="utf-8"?>
<!-- Generator: Adobe Illustrator 22.0.1, SVG Export Plug-In . SVG Version: 6.00 Build 0)  -->
<svg version="1.1" id="Layer_1" xmlns="http://www.w3.org/2000/svg" xmlns:xlink="http://www.w3.org/1999/xlink" x="0px" y="0px"
	 viewBox="0 0 100 100" style="enable-background:new 0 0 100 100;" xml:space="preserve">
<g>
	<path d="M8.4,50.9c1.1,8.2,15.1,28,40.9,28c27.7,0,40-19.2,40.9-28h0.1c0-0.1,0-0.3,0-0.4c0-0.2,0-0.4,0-0.6h-0.1
		c-1.1-8.2-15.1-28-40.9-28c-27.7,0-40,19.2-40.9,28H8.4c0,0.1,0,0.3,0,0.4C8.4,50.5,8.4,50.7,8.4,50.9L8.4,50.9z M49.4,25.9
		c24.5,0,36.4,19,37,24.6c-0.6,7.3-12,24.4-37,24.4c-24.5,0-36.4-19-37-24.6C13,43,24.4,25.9,49.4,25.9z"/>
	<path d="M49.4,68.9c10.2,0,18.5-8.3,18.5-18.5s-8.3-18.5-18.5-18.5s-18.5,8.3-18.5,18.5S39.2,68.9,49.4,68.9z M49.4,35.9
		c8,0,14.5,6.5,14.5,14.5s-6.5,14.5-14.5,14.5s-14.5-6.5-14.5-14.5S41.4,35.9,49.4,35.9z"/>
</g>
</svg>
